<?xml version="1.0" encoding="UTF-8"?>
<!DOCTYPE svg PUBLIC "-//W3C//DTD SVG 1.1//EN" "http://www.w3.org/Graphics/SVG/1.1/DTD/svg11.dtd">
<!-- Creator: CorelDRAW 2018 (64-Bit) -->
<svg xmlns="http://www.w3.org/2000/svg" xml:space="preserve" width="3.97917in" height="1.32292in" version="1.1" style="shape-rendering:geometricPrecision; text-rendering:geometricPrecision; image-rendering:optimizeQuality; fill-rule:evenodd; clip-rule:evenodd"
viewBox="0 0 3783.64 1257.91"
 xmlns:xlink="http://www.w3.org/1999/xlink">
 <defs>
  <style type="text/css">
   <![CDATA[
    .fil6 {fill:none}
    .fil4 {fill:#373435}
    .fil3 {fill:#ED3237}
    .fil2 {fill:#252122}
    .fil5 {fill:#FAFAFA}
    .fil0 {fill:#373435;fill-rule:nonzero}
    .fil1 {fill:#ED3237;fill-rule:nonzero}
   ]]>
  </style>
 </defs>
 <g id="Layer_x0020_1">
  <metadata id="CorelCorpID_0Corel-Layer"/>
  <g id="_497253107584">
   <g>
    <g>
     <path class="fil0" d="M1178.94 757.69l12.98 5.74c34.5,14.39 61,21.52 79.61,21.52 5.84,0 13.63,-0.97 23.15,-2.81l-23.47 54.41c-6.38,1.08 -12.22,1.62 -17.41,1.62 -20.98,0 -49.75,-8.98 -86.53,-26.93 -31.69,-15.36 -56.57,-23.15 -74.74,-23.15 -18.82,0 -33.96,5.3 -45.32,15.9l-18.71 -26.93c12.44,-13.52 28.66,-22.39 48.78,-26.61 -35.48,-11.25 -65.55,-29.2 -90.1,-54.08 -24.66,-24.77 -41.75,-51.49 -51.49,-80.15 -9.73,-28.56 -14.6,-57 -14.6,-85.34 0,-62.3 20.55,-115.41 61.76,-159.43 41.21,-44.02 96.04,-66.08 164.41,-66.08 68.47,0 123.84,21.41 166.03,64.36 42.29,42.83 63.38,96.91 63.38,162.13 0,34.61 -6.7,67.6 -20.01,98.97 -13.3,31.37 -36.02,59.49 -68.36,84.48 -32.34,24.88 -68.79,39.05 -109.35,42.4zm-185.17 -226.81c0,48.46 14.17,89.02 42.4,121.79 28.34,32.77 65.44,49.21 111.4,49.21 45.65,0 83.07,-16.77 112.38,-50.29 29.31,-33.53 44.02,-73.55 44.02,-120.06 0,-46.94 -14.93,-86.64 -44.78,-119.09 -29.85,-32.45 -67.38,-48.67 -112.6,-48.67 -44.89,0 -81.66,16.01 -110.11,47.91 -28.45,31.91 -42.73,71.6 -42.73,119.19zm774.76 168.41l0 53.87 -113.57 0 0 -35.15c-35.26,26.93 -69,40.34 -101.35,40.34 -20.44,0 -37.42,-4.54 -50.84,-13.52 -13.41,-8.98 -22.28,-20.55 -26.71,-34.83 -4.44,-14.28 -6.71,-37.21 -6.71,-68.9l0 -141.04 -43.48 0 0 -53.87 103.83 0 0 187.01c0,22.6 0.65,37.85 1.95,45.65 1.19,7.79 4.87,14.27 11.04,19.36 6.06,5.08 13.84,7.57 23.04,7.57 27.9,0 57.65,-13.3 89.23,-39.91l0 -165.81 -54.51 0 0 -53.87 114.87 0 0 253.1 53.21 0zm66.19 -357.8c0,-9.73 3.46,-18.17 10.28,-25.31 6.81,-7.25 15.58,-10.82 26.07,-10.82 9.95,0 18.39,3.46 25.64,10.49 7.14,6.92 10.71,15.58 10.71,25.64 0,10.17 -3.57,18.82 -10.71,25.96 -7.25,7.03 -15.69,10.6 -25.64,10.6 -10.06,0 -18.71,-3.57 -25.74,-10.82 -7.03,-7.14 -10.6,-15.79 -10.6,-25.74zm8.44 357.8l0 -199.23 -47.37 0 0 -53.87 107.73 0 0 253.1 47.37 0 0 53.87 -155.1 0 0 -53.87 47.37 0zm434.16 -253.1l0 116.17 -53.86 0c-2.71,-22.17 -11.79,-39.15 -27.04,-51.05 -15.25,-11.79 -32.99,-17.74 -53.22,-17.74 -27.04,0 -48.89,9.63 -65.76,28.77 -16.87,19.14 -25.31,44.35 -25.31,75.5 0,28.99 8,54.51 24.01,76.69 16.01,22.17 39.15,33.21 69.55,33.21 42.07,0 72.68,-20.12 91.61,-60.35l49.76 23.47c-27.47,60.89 -75.5,91.4 -144.07,91.4 -48.57,0 -86.75,-16.55 -114.65,-49.76 -27.8,-33.21 -41.75,-71.49 -41.75,-114.87 0,-46.29 15.25,-84.58 45.65,-114.65 30.39,-30.18 65.44,-45.21 105.13,-45.21 33.96,0 62.63,10.06 86.1,30.07l0 -21.63 53.86 0zm95.4 253.1l0 -332.92 -55.16 0 0 -53.86 115.51 0 0 275.16 114.55 -91.5 -50.95 0 0 -49.97 169.38 0 0 49.97 -46.83 0 -114.87 95.61 107.84 107.51 53.86 0 0 53.87 -78.85 0 -154.13 -154.46 0 100.59 53.21 0 0 53.87 -168.73 0 0 -53.87 55.16 0z"/>
     <path class="fil1" d="M2692.12 753.15l0 -74.63 62.95 0 0 -291.39 -62.95 0 0 -74.63 394.57 0 0 136.28 -84.36 0 0 -61.65 -132.39 0 0 101.89 95.4 0 0 74.63 -95.4 0 0 114.87 67.49 0 0 74.63 -245.31 0zm471.8 -394.14c0,-14.71 5.19,-27.37 15.68,-37.86 10.49,-10.49 23.04,-15.79 37.86,-15.79 15.03,0 27.69,5.3 37.96,15.79 10.38,10.49 15.58,23.15 15.58,37.86 0,14.82 -5.19,27.36 -15.69,37.75 -10.49,10.49 -23.04,15.69 -37.85,15.69 -14.6,0 -27.15,-5.3 -37.75,-15.79 -10.49,-10.49 -15.79,-23.04 -15.79,-37.64zm-43.48 157.91l0 -70.74 144.72 0 0 236.23 45.43 0 0 70.74 -190.15 0 0 -70.74 46.73 0 0 -165.49 -46.73 0zm218.05 236.23l0 -70.74 43.48 0 66.09 -79.28 -66.09 -86.21 -43.48 0 0 -70.74 116.92 0 55.05 84.04 60.35 -84.04 92.15 0 0 70.74 -40.88 0 -61.98 73.88 72.36 91.61 40.89 0 0 70.74 -117.36 0 -59.49 -86.21 -63.92 86.21 -94.1 0z"/>
    </g>
    <path class="fil0" d="M1350.19 901.15l0 -88.07 -14.19 0 0 -14.7 40.29 0 30.91 80.57 31.23 -80.57 40.66 0 0 14.7 -14.19 0 0 88.07 14.19 0 0 14.71 -44.29 0 0 -14.71 14.02 0 0 -88.07 -40.52 103.99 -3.46 0 -40.11 -103.99 0 88.07 12.98 0 0 14.71 -41.7 0 0 -14.71 14.19 0zm139.63 -26.18c0,-12.6 4.18,-22.99 12.52,-31.06 8.33,-8.1 18.48,-12.14 30.48,-12.14 11.77,0 21.89,3.98 30.34,11.97 8.45,7.99 12.66,18.4 12.66,31.23 0,12.86 -4.21,23.3 -12.63,31.31 -8.42,7.99 -18.55,12 -30.37,12 -12.17,0 -22.38,-4.07 -30.63,-12.17 -8.25,-8.13 -12.37,-18.51 -12.37,-31.14zm16.96 0.06c0,8.1 2.51,14.73 7.55,19.93 5.05,5.16 11.22,7.76 18.49,7.76 7.38,0 13.58,-2.62 18.57,-7.84 4.99,-5.25 7.47,-11.85 7.47,-19.84 0,-8.04 -2.54,-14.68 -7.61,-19.87 -5.07,-5.22 -11.22,-7.81 -18.43,-7.81 -7.55,0 -13.78,2.65 -18.69,7.99 -4.9,5.3 -7.35,11.88 -7.35,19.69zm80.31 40.83l0 -14.36 14.53 0 0 -88.76 -14.53 0 0 -14.36 30.28 0 0 47.24c8.05,-9.23 17.94,-13.84 29.62,-13.84 11.28,0 20.71,3.86 28.32,11.62 7.64,7.76 11.45,17.97 11.45,30.65 0,12.17 -3.72,22.41 -11.19,30.74 -7.44,8.3 -17.01,12.46 -28.66,12.46 -6.52,0 -12.49,-1.42 -17.88,-4.21 -5.39,-2.83 -9.29,-5.97 -11.65,-9.4l0 12.23 -30.28 0zm30.8 -40.75c0,8.51 2.59,15.28 7.79,20.28 5.22,4.99 11.22,7.5 18.05,7.5 7.12,0 13.3,-2.65 18.49,-7.96 5.16,-5.3 7.76,-12.43 7.76,-21.34 0,-8.65 -2.56,-15.34 -7.73,-20.13 -5.13,-4.76 -11.19,-7.15 -18.11,-7.15 -6.81,0 -12.89,2.48 -18.22,7.41 -5.36,4.93 -8.02,12.08 -8.02,21.4zm92.39 -69.01c0,-2.59 0.92,-4.84 2.74,-6.75 1.82,-1.94 4.16,-2.89 6.95,-2.89 2.65,0 4.9,0.92 6.83,2.8 1.91,1.85 2.86,4.16 2.86,6.84 0,2.71 -0.95,5.02 -2.86,6.92 -1.93,1.88 -4.18,2.83 -6.83,2.83 -2.68,0 -4.99,-0.95 -6.87,-2.88 -1.87,-1.91 -2.83,-4.21 -2.83,-6.87zm2.25 95.4l0 -53.12 -12.63 0 0 -14.36 28.72 0 0 67.48 12.63 0 0 14.36 -41.35 0 0 -14.36 12.63 0zm50.18 0l0 -88.76 -14.54 0 0 -14.36 30.63 0 0 103.12 12.63 0 0 14.36 -43.26 0 0 -14.36 14.54 0zm125.27 -22.49l-68.69 0c1.01,7.58 4.01,13.7 8.94,18.4 4.96,4.7 11.28,7.03 18.97,7.03 11.19,0 20.07,-4.5 26.59,-13.5l14.19 6.26c-4.62,7.12 -10.61,12.43 -18,15.89 -7.38,3.46 -15.08,5.19 -23.16,5.19 -12.48,0 -23.18,-3.89 -32.07,-11.71 -8.85,-7.82 -13.29,-18.34 -13.29,-31.61 0,-12.54 4.32,-22.9 12.98,-31.03 8.65,-8.1 18.57,-12.17 29.76,-12.17 10.99,0 20.94,3.95 29.88,11.88 8.94,7.9 13.55,19.69 13.9,35.35zm-16.61 -11.59c-1.13,-5.77 -4.1,-10.99 -8.94,-15.66 -4.82,-4.67 -10.76,-7 -17.76,-7 -6.41,0 -11.88,2.1 -16.44,6.32 -4.56,4.24 -7.33,9.66 -8.34,16.35l51.48 0zm30.14 48.45l0 -28.03 14.36 0 0 2.71c0.52,3.84 2.57,7.01 6.2,9.49 3.63,2.48 7.93,3.72 12.89,3.72 5.19,0 9.31,-0.89 12.43,-2.71 3.08,-1.82 4.64,-4.32 4.64,-7.52 0,-3.11 -1.3,-5.39 -3.86,-6.86 -2.57,-1.47 -7.64,-2.83 -15.25,-4.07 -11.31,-1.9 -19.35,-4.99 -24.16,-9.23 -4.82,-4.27 -7.24,-9.77 -7.24,-16.55 0,-6.81 2.62,-12.52 7.84,-17.1 5.25,-4.58 12.14,-6.89 20.68,-6.89 7.73,0 14.36,1.59 19.93,4.76l0 -3.55 14.36 0 0 27.16 -14.36 0 0 -4.99c-4.33,-6.72 -10.61,-10.07 -18.89,-10.07 -4.21,0 -7.7,0.92 -10.41,2.74 -2.74,1.85 -4.1,4.27 -4.1,7.33 0,3.11 1.24,5.22 3.75,6.37 2.51,1.18 7.93,2.4 16.21,3.72 7.93,1.27 13.93,2.74 18,4.38 4.07,1.67 7.44,4.44 10.12,8.28 2.68,3.86 4.01,8.36 4.01,13.47 0,7.61 -2.91,13.64 -8.74,18.11 -5.82,4.47 -13.38,6.72 -22.67,6.72 -8.74,0 -15.86,-2.02 -21.37,-6.03l0 4.64 -14.36 0zm133.41 -14.71l0 -88.07 -14.88 0 0 -14.7 91.19 0 0 35.3 -14.71 0 0 -20.59 -43.77 0 0 34.78 37.72 0 0 14.7 -37.72 0 0 38.58 15.05 0 0 14.71 -47.76 0 0 -14.71 14.88 0zm93.58 -95.05c0,-2.59 0.92,-4.84 2.74,-6.75 1.82,-1.94 4.16,-2.89 6.95,-2.89 2.65,0 4.9,0.92 6.83,2.8 1.91,1.85 2.86,4.16 2.86,6.84 0,2.71 -0.95,5.02 -2.86,6.92 -1.93,1.88 -4.18,2.83 -6.83,2.83 -2.68,0 -4.99,-0.95 -6.87,-2.88 -1.87,-1.91 -2.83,-4.21 -2.83,-6.87zm2.25 95.4l0 -53.12 -12.63 0 0 -14.36 28.72 0 0 67.48 12.63 0 0 14.36 -41.35 0 0 -14.36 12.63 0zm80.54 -18.28l-16.15 18.28 10.52 0 0 14.36 -39.62 0 0 -14.36 12.02 0 24.57 -27.66 -23.53 -25.46 -10.99 0 0 -14.36 38.41 0 0 14.36 -10.23 0 14.73 16.01 14.22 -16.01 -8.33 0 0 -14.36 38.58 0 0 14.36 -13.41 0 -22.44 25.38 25.55 27.74 10.29 0 0 14.36 -38.58 0 0 -14.36 11.28 0 -16.9 -18.28zm179.6 -29.47l24.11 0 0 14.36 -12.43 0c-3.06,10.85 -6.95,19.21 -11.71,25.12l6.17 7.93 17.97 0 0 14.71 -26.82 0 -7.79 -10.29c-10.21,8.13 -20.62,12.2 -31.26,12.2 -12.17,0 -22.24,-3.78 -30.2,-11.33 -7.93,-7.55 -11.91,-16.98 -11.91,-28.32 0,-15.66 8.91,-27.43 26.7,-35.24 -5.33,-6.84 -8.01,-13.67 -8.01,-20.56 0,-7.52 2.85,-13.72 8.59,-18.57 5.71,-4.84 12.37,-7.27 19.99,-7.27 7.9,0 14.56,2.4 20.01,7.21 5.45,4.81 8.16,10.82 8.16,17.97 0,6.26 -1.91,11.39 -5.74,15.37 -3.84,4.01 -10.15,7.82 -18.92,11.42l23.94 32.41c4.3,-7.5 7.36,-16.52 9.14,-27.11zm-41.61 -16.47c6.84,-2.83 11.48,-5.45 13.93,-7.93 2.45,-2.48 3.69,-5.22 3.69,-8.22 0,-2.77 -1.04,-5.25 -3.14,-7.47 -2.1,-2.22 -5.13,-3.34 -9.11,-3.34 -3.55,0 -6.55,1.07 -8.91,3.2 -2.4,2.16 -3.58,4.93 -3.58,8.39 0,3.02 2.05,7.64 6.12,13.84l1.01 1.53zm-6.52 16.41c-12.17,5.42 -18.25,13.29 -18.25,23.7 0,6.89 2.57,12.92 7.7,18.08 5.13,5.16 11.36,7.76 18.69,7.76 7.49,0 14.33,-3.14 20.44,-9.4l-28.58 -40.14zm153.88 -40.61l0 58.8c0,9.14 0.46,15.43 1.39,18.92 0.92,3.52 3.26,6.49 6.98,8.94 3.69,2.45 8.48,3.66 14.33,3.66 6.98,0 12.31,-1.07 16.03,-3.17 3.72,-2.11 6.17,-4.96 7.38,-8.54 1.21,-3.58 1.82,-9.89 1.82,-18.98l0 -59.64 -13.67 0 0 -14.7 46.02 0 0 14.7 -14.71 0 0 61.42c0,8.28 -0.34,14.3 -1.07,18.03 -0.69,3.75 -2.59,7.67 -5.68,11.77 -3.11,4.07 -7.47,7.35 -13.12,9.8 -5.62,2.45 -12.46,3.66 -20.53,3.66 -8.88,0 -16.29,-1.15 -22.21,-3.43 -5.91,-2.28 -10.38,-5.33 -13.35,-9.17 -3,-3.81 -4.99,-7.9 -5.97,-12.23 -0.98,-4.35 -1.47,-11.07 -1.47,-20.22l0 -59.64 -14.53 0 0 -14.7 46.37 0 0 14.7 -14.02 0zm117.63 20.94l0 9.95c10.29,-7.44 19.66,-11.16 28.17,-11.16 5.28,0 9.63,1.24 13.09,3.75 3.46,2.51 5.71,5.57 6.78,9.2 1.07,3.63 1.62,8.94 1.62,15.92l0 39.83 13.84 0 0 14.36 -29.93 0 0 -53.55c0,-6.2 -0.92,-10.24 -2.77,-12.14 -1.85,-1.88 -4.13,-2.83 -6.84,-2.83 -7.06,0 -15.05,3.46 -23.96,10.38l0 43.78 14.19 0 0 14.36 -44.64 0 0 -14.36 14.36 0 0 -53.12 -14.36 0 0 -14.36 30.45 0zm82.04 67.48l0 -88.76 -14.54 0 0 -14.36 30.63 0 0 103.12 12.63 0 0 14.36 -43.26 0 0 -14.36 14.54 0zm39.1 -26.53c0,-12.6 4.18,-22.99 12.52,-31.06 8.33,-8.1 18.48,-12.14 30.48,-12.14 11.77,0 21.89,3.98 30.34,11.97 8.45,7.99 12.66,18.4 12.66,31.23 0,12.86 -4.21,23.3 -12.63,31.31 -8.42,7.99 -18.55,12 -30.37,12 -12.17,0 -22.38,-4.07 -30.63,-12.17 -8.25,-8.13 -12.37,-18.51 -12.37,-31.14zm16.96 0.06c0,8.1 2.51,14.73 7.55,19.93 5.05,5.16 11.22,7.76 18.49,7.76 7.38,0 13.58,-2.62 18.57,-7.84 4.99,-5.25 7.47,-11.85 7.47,-19.84 0,-8.04 -2.54,-14.68 -7.61,-19.87 -5.07,-5.22 -11.22,-7.81 -18.43,-7.81 -7.55,0 -13.78,2.65 -18.69,7.99 -4.9,5.3 -7.35,11.88 -7.35,19.69zm159.21 -41.01l0 30.97 -14.36 0c-0.72,-5.91 -3.14,-10.44 -7.21,-13.61 -4.07,-3.14 -8.79,-4.73 -14.19,-4.73 -7.21,0 -13.04,2.57 -17.53,7.67 -4.5,5.11 -6.75,11.82 -6.75,20.13 0,7.73 2.13,14.53 6.4,20.45 4.27,5.91 10.44,8.85 18.54,8.85 11.22,0 19.38,-5.36 24.43,-16.09l13.27 6.26c-7.33,16.24 -20.13,24.37 -38.41,24.37 -12.95,0 -23.13,-4.41 -30.57,-13.26 -7.41,-8.85 -11.13,-19.06 -11.13,-30.63 0,-12.34 4.07,-22.55 12.17,-30.57 8.1,-8.04 17.44,-12.05 28.03,-12.05 9.06,0 16.7,2.68 22.96,8.02l0 -5.77 14.36 0zm25.44 67.48l0 -88.76 -14.71 0 0 -14.36 30.8 0 0 73.36 30.54 -24.4 -13.58 0 0 -13.32 45.16 0 0 13.32 -12.48 0 -30.63 25.49 28.75 28.66 14.36 0 0 14.36 -21.02 0 -41.1 -41.18 0 26.82 14.19 0 0 14.36 -44.99 0 0 -14.36 14.71 0zm143.47 -0.35l0 -88.07 -15.23 0 0 -14.7 97.76 0 0 35.3 -14.7 0 0 -20.59 -50.01 0 0 34.95 43.6 0 0 14.7 -43.6 0 0 38.41 50.01 0 0 -21.28 14.7 0 0 35.99 -97.76 0 0 -14.71 15.23 0zm136.6 -17.94l-16.15 18.28 10.52 0 0 14.36 -39.62 0 0 -14.36 12.02 0 24.57 -27.66 -23.53 -25.46 -10.99 0 0 -14.36 38.41 0 0 14.36 -10.23 0 14.73 16.01 14.22 -16.01 -8.33 0 0 -14.36 38.58 0 0 14.36 -13.41 0 -22.44 25.38 25.55 27.74 10.29 0 0 14.36 -38.58 0 0 -14.36 11.28 0 -16.9 -18.28zm63.21 54.96l0 -89.8 -13.67 0 0 -14.36 29.76 0 0 12.89c7.99,-9.4 17.68,-14.1 29.07,-14.1 11.48,0 20.99,3.95 28.52,11.83 7.53,7.9 11.28,18.17 11.28,30.8 0,13.24 -4.09,23.67 -12.25,31.34 -8.16,7.67 -17.45,11.51 -27.89,11.51 -10.81,0 -20.39,-4.18 -28.72,-12.51l0 32.41 15.92 0 0 14.36 -46.89 0 0 -14.36 14.88 0zm15.84 -61.97c0,4.53 0.92,8.85 2.8,12.98 1.85,4.13 4.81,7.58 8.85,10.38 4.07,2.8 8.82,4.18 14.27,4.18 7.64,0 13.96,-2.57 18.95,-7.7 4.99,-5.13 7.47,-12.2 7.47,-21.2 0,-8.74 -2.59,-15.57 -7.81,-20.48 -5.19,-4.93 -11.13,-7.38 -17.77,-7.38 -7.09,0 -13.32,2.68 -18.68,8.02 -5.39,5.33 -8.07,12.4 -8.07,21.2zm168.96 2.8l-68.69 0c1.01,7.58 4.01,13.7 8.94,18.4 4.96,4.7 11.28,7.03 18.97,7.03 11.19,0 20.07,-4.5 26.59,-13.5l14.19 6.26c-4.62,7.12 -10.61,12.43 -18,15.89 -7.38,3.46 -15.08,5.19 -23.16,5.19 -12.48,0 -23.18,-3.89 -32.07,-11.71 -8.85,-7.82 -13.29,-18.34 -13.29,-31.61 0,-12.54 4.32,-22.9 12.98,-31.03 8.65,-8.1 18.57,-12.17 29.76,-12.17 10.99,0 20.94,3.95 29.88,11.88 8.94,7.9 13.55,19.69 13.9,35.35zm-16.61 -11.59c-1.13,-5.77 -4.1,-10.99 -8.94,-15.66 -4.82,-4.67 -10.76,-7 -17.76,-7 -6.41,0 -11.88,2.1 -16.44,6.32 -4.56,4.24 -7.33,9.66 -8.34,16.35l51.48 0zm43.29 34.09l0 -53.12 -16.44 0 0 -14.36 29.24 0 0 18.43c1.82,-4.78 4.33,-8.76 7.53,-11.91 3.23,-3.17 6.63,-5.25 10.21,-6.23 3.6,-1.01 8.51,-1.5 14.7,-1.5l4.24 0 0 16.27 -3.2 0c-8.19,0 -14.28,0.81 -18.31,2.45 -4.04,1.61 -7.01,4.59 -8.97,8.88 -1.93,4.3 -2.91,12.03 -2.91,23.13l0 17.97 17.82 0 0 14.36 -50.35 0 0 -14.36 16.44 0zm59.72 -53.12l0 -14.36 10.73 0 0 -12.63 16.09 -14.71 0 27.34 15.05 0 0 14.36 -15.05 0 0 39.77c0,6.38 0.34,10.29 1.04,11.8 0.72,1.5 2.48,2.25 5.28,2.25 2.97,0 5.88,-0.58 8.74,-1.73l0 14.54c-4.1,1.5 -8.22,2.25 -12.31,2.25 -4.9,0 -8.88,-1.1 -11.91,-3.26 -3.03,-2.16 -4.96,-4.87 -5.74,-8.16 -0.78,-3.26 -1.18,-8.88 -1.18,-16.9l0 -40.55 -10.73 0zm54.13 67.48l0 -28.03 14.36 0 0 2.71c0.52,3.84 2.57,7.01 6.2,9.49 3.63,2.48 7.93,3.72 12.89,3.72 5.19,0 9.31,-0.89 12.43,-2.71 3.08,-1.82 4.64,-4.32 4.64,-7.52 0,-3.11 -1.3,-5.39 -3.86,-6.86 -2.57,-1.47 -7.64,-2.83 -15.25,-4.07 -11.31,-1.9 -19.35,-4.99 -24.16,-9.23 -4.82,-4.27 -7.24,-9.77 -7.24,-16.55 0,-6.81 2.62,-12.52 7.84,-17.1 5.25,-4.58 12.14,-6.89 20.68,-6.89 7.73,0 14.36,1.59 19.93,4.76l0 -3.55 14.36 0 0 27.16 -14.36 0 0 -4.99c-4.33,-6.72 -10.61,-10.07 -18.89,-10.07 -4.21,0 -7.7,0.92 -10.41,2.74 -2.74,1.85 -4.1,4.27 -4.1,7.33 0,3.11 1.24,5.22 3.75,6.37 2.51,1.18 7.93,2.4 16.21,3.72 7.93,1.27 13.93,2.74 18,4.38 4.07,1.67 7.44,4.44 10.12,8.28 2.68,3.86 4.01,8.36 4.01,13.47 0,7.61 -2.91,13.64 -8.74,18.11 -5.82,4.47 -13.38,6.72 -22.67,6.72 -8.74,0 -15.86,-2.02 -21.37,-6.03l0 4.64 -14.36 0z"/>
   </g>
   <g>
    <path class="fil2" d="M139.77 369.52c6.41,40.64 0,0 6.18,38.84 25.08,191.4 68.48,401.39 95.89,593.79 4.87,34.17 10.52,67.91 16.18,100.75 5.88,34.02 6.49,72.02 37.89,78.94 18.52,4.08 336.74,-68.16 384.71,-77.64 21.9,-4.33 74.72,-12 89.81,-23.93 26.25,-20.73 17.98,-59.86 16.61,-100.38 -1.09,-32.19 -4.58,-207 -9.3,-223.47 -19.55,11.99 -27.53,10.9 -51.69,18.16 -7.95,32.73 8.34,141.03 5.7,185.89 -10.9,5.41 -418.12,66.95 -431.52,64.88l-99.07 -651.4c-9.13,-62.01 0,0 -9.13,-62.01l-12.33 -82.77 444.91 45.49c-4.06,-11.74 0.37,-1.75 -4.48,-10.19 -22.82,-39.75 -14.63,-21.93 -26.25,-70.81 -117.08,-8.25 -239.28,-29.3 -356.76,-41.65 -75.24,-7.91 -138.62,-33.97 -124.96,45.51 9.86,57.39 17.02,113.61 27.62,171.99z"/>
    <path class="fil3" d="M452.01 554.27c-13.12,-25.79 -5.56,-31.6 -2.23,-56.07l-193.65 46.11 28.63 212.62 201.44 -47.24c-6.56,-20.42 -21.27,-32.7 -18.43,-62.67 19.15,35.7 39,85.35 95.65,87.54l19.41 -96.25c-37.89,-5.62 -68.11,-19.44 -84.13,-43.66 23.39,11.1 56.76,37.37 97.44,28.63 -7.65,-20.98 -1.75,-25.3 9.03,-40.12 -8.16,-22.15 -19.01,-26.29 4,-58.26 -12.76,-9.22 -27.81,-12.29 -35.61,-23.95 30.98,10.66 38.88,16.43 76.59,9.62l13.25 -28.65c4.92,-5.73 1.24,-1.52 4.98,-4.87 -5.35,31.77 -16.12,60.09 3.67,90.34 16.28,24.89 63.67,34.68 65.74,-0.77 1.02,-17.37 -6.06,-25.5 -0.3,-46.35 13.11,-47.39 19.69,-58.59 -48.89,-97.34 -73.44,-41.5 -82.72,-46.27 -147.98,3.04 -17.12,12.94 -46.69,35.58 -59.12,49.16 -19.58,21.38 -27.2,40.41 -29.5,79.15z"/>
    <path class="fil4" d="M642.55 383.39c6.33,5.65 83.17,47.89 91.36,48.87 8.9,-26.42 20.29,-123.05 31.29,-136.91 6.64,-6.61 65.1,-19.25 79.52,-87.22 11.25,-53.04 -21.98,-108.73 -45.69,-114.79 -3.4,18.46 -13.35,85.11 -20.89,95.19 -11.07,9.12 -33.88,14.7 -49.78,18.35 -16.81,-10.31 -26.47,-24.68 -41.94,-34.09l18.07 -96.89c-68.55,14.22 -112.52,104.63 -62.58,174.67 10.49,14.72 23.05,15.37 18.99,37.51 -5.6,30.63 -15.29,64.8 -18.36,95.32z"/>
    <path class="fil4" d="M677.78 722.03c-55.33,-20.95 -56.89,-36.45 -46.88,-69.51 -9,-6.34 -24.55,-8.5 -36.09,-10.43 -10.35,33.15 -18.97,112.71 -28.15,134.63 -6.99,16.67 -15.06,16.85 -27.97,27.46 -47.4,38.95 -47.11,110.38 2.75,146.22 70.9,50.96 163.78,-14.32 143.59,-96.42 -4.6,-18.72 -12.22,-24.1 -17.32,-37.98 -8.36,-22.73 7.85,-69.25 10.07,-93.96z"/>
    <path class="fil3" d="M617.16 590.71c-21.75,8.6 -8.41,35.96 7.72,43.15 16.74,7.45 164.31,45.42 183.05,31.44 12.6,-9.4 20.07,-40.85 2.63,-50.4 -15.69,-8.59 -192.69,-24.47 -193.4,-24.19z"/>
    <path class="fil3" d="M712.04 724.65c-0.58,0.49 -1.64,0.18 -2.02,1.06l-14.63 2.4c-0.92,0.07 -1.73,0.1 -2.55,0.17l-8.66 16.9c17.9,10.09 49.42,2.46 65.76,-4.41 21.51,-9.06 32.98,-19.36 27.88,-49.98 -11.37,-11.13 -102.87,-33.72 -124.59,-33.56 -20.87,0.15 -23.81,27.11 2.32,43.05 19.51,11.9 34.51,14.97 56.49,24.37z"/>
    <path class="fil3" d="M780.23 443.07c-10.96,5.87 -12.36,6.79 -21.44,15.23 0.17,13.09 4.86,13.2 2.16,29.81 -1.81,11.13 -5.63,20.31 -6.41,32.58 47.52,-1.62 80.78,1 76.8,-54.14 -3.24,-44.87 -35.29,-52.41 -80.78,-48.79 -5.2,9.05 -10.72,27.83 -1.09,33.25 8.67,4.88 15.36,-10.86 30.75,-7.95z"/>
    <path class="fil5" d="M512.97 1019.09c-57.59,22.36 -29.34,104.67 21.81,86.32 51.8,-18.58 31.97,-107.2 -21.81,-86.32z"/>
    <path class="fil5" d="M582.55 835.54c-58.91,21.72 -22.54,101.13 29.32,80.7 51.26,-20.19 22.91,-99.96 -29.32,-80.7z"/>
    <path class="fil3" d="M744.69 594.1c36.63,3.99 84.3,16.7 87.02,-24.77 1.55,-23.57 -2.43,-35.54 -26.3,-38.48 -74.57,-9.19 -54.88,12.87 -54.57,35.79 0.18,13.77 -3.77,15.82 -6.14,27.46z"/>
    <path class="fil3" d="M665.04 586.79c-4.58,-21.85 -14.24,-20.48 -14.32,-54.75 -22.73,-0.74 -50.81,6.88 -39.61,31.95 7.35,16.45 32.2,20.53 53.93,22.8z"/>
   </g>
  </g>
  <rect class="fil6" x="-0" y="-0" width="3783.64" height="1257.91"/>
 </g>
</svg>
